<svg width="64" height="71" viewBox="0 0 64 71" fill="none" xmlns="http://www.w3.org/2000/svg">
<path d="M30.3333 56.8334C30.3333 60.5 31.3333 63.9 33.0333 66.8334H7C3.3 66.8334 0.333334 63.8667 0.333334 60.1667V6.83335C0.333334 5.06524 1.03571 3.36955 2.28596 2.11931C3.5362 0.869066 5.23189 0.166687 7 0.166687H10.3333V23.5L18.6667 18.5L27 23.5V0.166687H47C48.7681 0.166687 50.4638 0.869066 51.714 2.11931C52.9643 3.36955 53.6667 5.06524 53.6667 6.83335V37.1334C52.5667 36.9667 51.4667 36.8334 50.3333 36.8334C39.3 36.8334 30.3333 45.8 30.3333 56.8334ZM53.6667 53.5V43.5H47V53.5H37V60.1667H47V70.1667H53.6667V60.1667H63.6667V53.5H53.6667Z" fill="#C7C7C7"/>
</svg>
