<svg width="59" height="68" viewBox="0 0 59 68" fill="none" xmlns="http://www.w3.org/2000/svg">
<path d="M42.8333 67.3667L33.6667 57.3667L37.5333 53.5L42.8333 58.8L54.8 46.8334L58.6667 51.5334L42.8333 67.3667ZM7 66.8334C5.23189 66.8334 3.5362 66.131 2.28596 64.8807C1.03571 63.6305 0.333336 61.9348 0.333336 60.1667V6.83335C0.333336 3.13335 3.3 0.166687 7 0.166687H10.3333V23.5L18.6667 18.5L27 23.5V0.166687H47C48.7681 0.166687 50.4638 0.869066 51.714 2.11931C52.9643 3.36955 53.6667 5.06524 53.6667 6.83335V37.9667C49.8108 36.6077 45.6312 36.4621 41.6901 37.5494C37.7489 38.6366 34.2352 40.9046 31.6215 44.0484C29.0077 47.1921 27.4193 51.0608 27.0699 55.1342C26.7204 59.2076 27.6266 63.2903 29.6667 66.8334H7Z" fill="#C7C7C7"/>
</svg>
