<svg width="62" height="72" viewBox="0 0 62 72" fill="none" xmlns="http://www.w3.org/2000/svg">
<path d="M38.6667 33.5C47 33.5 53.6667 40.1667 53.6667 48.5C53.6667 51.4334 52.8333 54.2 51.3667 56.5L61.6333 66.8334L57 71.4667L46.6 61.2334C44.3 62.6667 41.5667 63.5 38.6667 63.5C30.3333 63.5 23.6667 56.8334 23.6667 48.5C23.6667 40.1667 30.3333 33.5 38.6667 33.5ZM38.6667 40.1667C36.4565 40.1667 34.3369 41.0447 32.7741 42.6075C31.2113 44.1703 30.3333 46.2899 30.3333 48.5C30.3333 50.7102 31.2113 52.8298 32.7741 54.3926C34.3369 55.9554 36.4565 56.8334 38.6667 56.8334C40.8768 56.8334 42.9964 55.9554 44.5592 54.3926C46.122 52.8298 47 50.7102 47 48.5C47 46.2899 46.122 44.1703 44.5592 42.6075C42.9964 41.0447 40.8768 40.1667 38.6667 40.1667ZM7.00001 66.8334C5.2319 66.8334 3.53621 66.131 2.28596 64.8807C1.03572 63.6305 0.333344 61.9348 0.333344 60.1667V6.83335C0.333344 5.06524 1.03572 3.36955 2.28596 2.11931C3.53621 0.869066 5.2319 0.166687 7.00001 0.166687H10.3333V23.5L18.6667 18.5L27 23.5V0.166687H47C48.7681 0.166687 50.4638 0.869066 51.7141 2.11931C52.9643 3.36955 53.6667 5.06524 53.6667 6.83335V32.8667C49.6363 28.9896 44.2592 26.8268 38.6667 26.8334C32.9203 26.8334 27.4093 29.1161 23.346 33.1794C19.2827 37.2427 17 42.7537 17 48.5C17 56.2 21.0333 63 27.1 66.8334H7.00001Z" fill="#C7C7C7"/>
</svg>
