<svg width="64" height="67" viewBox="0 0 64 67" fill="none" xmlns="http://www.w3.org/2000/svg">
<path d="M51.6333 29.3L23.6667 57.2667V66.8334H7C3.3 66.8334 0.333336 63.8667 0.333336 60.1667V6.83335C0.333336 5.06524 1.03571 3.36955 2.28596 2.11931C3.5362 0.869066 5.23189 0.166687 7 0.166687H10.3333V23.5L18.6667 18.5L27 23.5V0.166687H47C48.7681 0.166687 50.4638 0.869066 51.714 2.11931C52.9643 3.36955 53.6667 5.06524 53.6667 6.83335V27.8334C52.9333 28.2334 52.2333 28.7 51.6333 29.3ZM30.3333 60.0333V66.8334H37.1333L57.5667 46.4334L50.7667 39.6L30.3333 60.0333ZM63.1667 38.4L58.7667 34C58.1 33.3334 57 33.3334 56.3667 34L53.1 37.2667L59.9 44.0667L63.1667 40.8C63.8333 40.1667 63.8333 39.0667 63.1667 38.4Z" fill="#C7C7C7"/>
</svg>
