<svg width="64" height="71" viewBox="0 0 64 71" fill="none" xmlns="http://www.w3.org/2000/svg">
<path d="M27 55.1667C27 59.4667 28.3 63.5 30.4667 66.8334H6.99999C3.29999 66.8334 0.333328 63.8667 0.333328 60.1667V6.83335C0.333328 5.06524 1.03571 3.36955 2.28595 2.11931C3.53619 0.869066 5.23188 0.166687 6.99999 0.166687H10.3333V23.5L18.6667 18.5L27 23.5V0.166687H47C48.7681 0.166687 50.4638 0.869066 51.714 2.11931C52.9643 3.36955 53.6667 5.06524 53.6667 6.83335V34.1C52 33.7334 50.3333 33.5 48.6667 33.5C42.9203 33.5 37.4093 35.7828 33.346 39.846C29.2827 43.9093 27 49.4203 27 55.1667ZM63.6667 55.1667C63.6667 63.5 57 70.1667 48.6667 70.1667C40.3333 70.1667 33.6667 63.5 33.6667 55.1667C33.6667 46.8334 40.3333 40.1667 48.6667 40.1667C57 40.1667 63.6667 46.8334 63.6667 55.1667ZM53.6667 63.7667L40.0667 50.1667C39.1667 51.5667 38.6667 53.3 38.6667 55.1667C38.6667 60.7 43.1333 65.1667 48.6667 65.1667C50.5333 65.1667 52.2667 64.6667 53.6667 63.7667ZM58.6667 55.1667C58.6667 49.6334 54.2 45.1667 48.6667 45.1667C46.8 45.1667 45.0667 45.6667 43.6667 46.5667L57.2667 60.1667C58.1667 58.7667 58.6667 57.0334 58.6667 55.1667Z" fill="#C7C7C7"/>
</svg>
