<svg width="64" height="74" viewBox="0 0 64 74" fill="none" xmlns="http://www.w3.org/2000/svg">
<path d="M42 51.5L51.5333 57.1334L49.0333 61.2L37 54V37.3334H42V51.5ZM63.6667 50.6667C63.6667 63.5667 53.2333 74 40.3333 74C33.9667 74 28.2333 71.4667 24.0333 67.3333H7.00001C3.30001 67.3333 0.333344 64.3667 0.333344 60.6667V7.33335C0.333344 5.56524 1.03572 3.86955 2.28596 2.61931C3.53621 1.36907 5.2319 0.666687 7.00001 0.666687H10.3333V24L18.6667 19L27 24V0.666687H47C48.7681 0.666687 50.4638 1.36907 51.7141 2.61931C52.9643 3.86955 53.6667 5.56524 53.6667 7.33335V31.5334C59.7 35.7667 63.6667 42.7333 63.6667 50.6667ZM57 50.6667C57 41.4667 49.5333 34 40.3333 34C31.1333 34 23.6667 41.4667 23.6667 50.6667C23.6667 59.8667 31.1333 67.3333 40.3333 67.3333C49.5333 67.3333 57 59.8667 57 50.6667Z" fill="#C7C7C7"/>
</svg>
