<svg width="61" height="69" viewBox="0 0 61 69" fill="none" xmlns="http://www.w3.org/2000/svg">
<path d="M27 55.1667C27 59.4667 28.3 63.5 30.4667 66.8333H6.99999C3.29999 66.8333 0.333328 63.8667 0.333328 60.1667V6.83335C0.333328 5.06524 1.03571 3.36955 2.28595 2.11931C3.53619 0.869066 5.23188 0.166687 6.99999 0.166687H10.3333V23.5L18.6667 18.5L27 23.5V0.166687H47C48.7681 0.166687 50.4638 0.869066 51.714 2.11931C52.9643 3.36955 53.6667 5.06524 53.6667 6.83335V34.1C52 33.7334 50.3333 33.5 48.6667 33.5C42.9203 33.5 37.4093 35.7827 33.346 39.846C29.2827 43.9093 27 49.4203 27 55.1667ZM60.3333 55.1667V41.8334L56.4333 45.7333C55.1953 44.4941 53.7246 43.5116 52.1057 42.8423C50.4869 42.173 48.7517 41.8302 47 41.8334C39.6333 41.8334 33.6667 47.8 33.6667 55.1667C33.6667 62.5333 39.6333 68.5 47 68.5C52.6 68.5 57.4 65.0667 59.3667 60.1667H53.6667C52.646 61.5239 51.2351 62.5369 49.6228 63.0701C48.0105 63.6033 46.2738 63.6312 44.6452 63.15C43.0166 62.6688 41.5739 61.7016 40.5102 60.3778C39.4466 59.054 38.8127 57.4369 38.6936 55.7429C38.5744 54.0489 38.9757 52.3589 39.8435 50.8993C40.7114 49.4396 42.0045 48.28 43.5497 47.5756C45.0949 46.8712 46.8185 46.6557 48.4895 46.9579C50.1606 47.2601 51.6994 48.0657 52.9 49.2667L47 55.1667H60.3333Z" fill="#C7C7C7"/>
</svg>
