<svg width="67" height="74" viewBox="0 0 67 74" fill="none" xmlns="http://www.w3.org/2000/svg">
<path d="M27 56.8333C27 60.4333 27.8333 63.8 29.2667 66.8333H7.00001C3.30001 66.8333 0.333344 63.8667 0.333344 60.1667V6.83335C0.333344 5.06524 1.03572 3.36955 2.28596 2.11931C3.53621 0.869066 5.2319 0.166687 7.00001 0.166687H10.3333V23.5L18.6667 18.5L27 23.5V0.166687H47C48.7681 0.166687 50.4638 0.869066 51.7141 2.11931C52.9643 3.36955 53.6667 5.06524 53.6667 6.83335V33.7667C52.5667 33.6 51.4667 33.5 50.3333 33.5C37.4333 33.5 27 43.9333 27 56.8333ZM66.3333 61.5C66.6667 61.5 66.6667 61.8333 66.3333 62.1667L63 67.8333C62.6667 68.1667 62.3333 68.1667 62 68.1667L58 66.8333C57 67.5 56.3333 67.8333 55.3333 68.5L54.6667 72.8333C54.6667 73.1667 54.3333 73.5 54 73.5H47.3333C47 73.5 46.6667 73.1667 46.3333 72.8333L45.6667 68.5C44.6667 68.1667 43.6667 67.5 43 66.8333L39 68.5C38.6667 68.5 38.3333 68.5 38 68.1667L34.6667 62.5C34.3333 62.1667 34.6667 61.8333 35 61.5L38.6667 58.8334V55.5L35 52.8333C34.6667 52.5 34.6667 52.1667 34.6667 51.8333L38 46.1667C38.3333 45.8334 38.6667 45.8333 39 45.8333L43 47.5C44 46.8334 44.6667 46.5 45.6667 45.8333L46.3333 41.5C46.3333 41.1667 46.6667 40.8333 47.3333 40.8333H54C54.3333 40.8333 54.6667 41.1667 54.6667 41.5L55.3333 45.8333C56.3333 46.1667 57.3333 46.8334 58.3333 47.5L62.3333 45.8333C62.6667 45.8333 63.3333 45.8334 63.3333 46.1667L66.6667 51.8333C67 52.1667 66.6667 52.5 66.3333 52.8333L62.6667 55.5V58.8334L66.3333 61.5ZM55.3333 56.8333C55.3333 54.1667 53 51.8333 50.3333 51.8333C47.6667 51.8333 45.3333 54.1667 45.3333 56.8333C45.3333 59.5 47.6667 61.8333 50.3333 61.8333C53 61.8333 55.3333 59.5 55.3333 56.8333Z" fill="#C7C7C7"/>
</svg>
