<svg width="206" height="26" viewBox="0 0 206 26" fill="none" xmlns="http://www.w3.org/2000/svg">
<path d="M2.67188 15.7969C2.67188 14.2865 2.70312 12.7135 2.76562 11.0781C2.81771 9.35938 2.90104 7.84375 3.01562 6.53125H2.98438L1.21875 6.20312C1.10417 5.69271 1.02083 5.26042 0.96875 4.90625C0.927083 4.54167 0.90625 4.16667 0.90625 3.78125C0.90625 3.51042 0.911458 3.30208 0.921875 3.15625C1.14062 2.875 1.47396 2.59375 1.92188 2.3125C2.38021 2.02083 2.91146 1.77604 3.51562 1.57812C4.11979 1.38021 4.74479 1.28125 5.39062 1.28125C6.71354 1.28125 7.69792 1.61979 8.34375 2.29688C8.98958 2.97396 9.28125 3.98438 9.21875 5.32812L9.17188 6.6875C9.13021 8.96875 9.03646 10.8229 8.89062 12.25H14.2031C14.2344 10.1771 14.3281 8.26562 14.4844 6.51562H14.4531L12.2188 6.1875C12.1042 5.67708 12.0208 5.24479 11.9688 4.89062C11.9271 4.52604 11.9062 4.15104 11.9062 3.76562C11.9062 3.49479 11.9115 3.28646 11.9219 3.14062C12.1406 2.86979 12.5156 2.58854 13.0469 2.29688C13.5781 2.00521 14.1875 1.76042 14.875 1.5625C15.5729 1.36458 16.2604 1.26562 16.9375 1.26562C18.2604 1.26562 19.2708 1.60938 19.9688 2.29688C20.6771 2.97396 21.0312 3.97917 21.0312 5.3125C21.0312 9.04167 20.4531 14.2656 19.2969 20.9844L21.6094 19.9844C22.401 20.6719 22.8542 21.599 22.9688 22.7656C22.9688 22.8385 22.724 23.1406 22.2344 23.6719C21.7552 24.1927 21.125 24.6823 20.3438 25.1406C19.5729 25.5885 18.6927 25.8125 17.7031 25.8125C16.651 25.8125 15.7812 25.5312 15.0938 24.9688C14.4167 24.4062 14.0833 23.4219 14.0938 22.0156V21C14.0938 19.2708 14.1302 17.8333 14.2031 16.6875C13.9635 16.7083 13.599 16.7188 13.1094 16.7188C12.3906 16.7188 11.3333 16.6562 9.9375 16.5312C9.27083 16.4688 8.79688 16.4271 8.51562 16.4062C8.54688 17.4583 8.625 18.5052 8.75 19.5469C8.875 20.5781 9.03646 21.7448 9.23438 23.0469C9.35938 23.8698 9.44792 24.4896 9.5 24.9062C9.07292 25.1667 8.39583 25.3802 7.46875 25.5469C6.54167 25.7135 5.75521 25.7969 5.10938 25.7969C4.78646 25.7969 4.47917 25.7708 4.1875 25.7188C3.90625 25.6667 3.59375 25.5885 3.25 25.4844C2.86458 23.0781 2.67188 19.849 2.67188 15.7969ZM29.2031 15.2031C29.8177 15.2031 30.4948 15.2656 31.2344 15.3906C31.9844 15.5156 32.6719 15.6667 33.2969 15.8438V15.3594C33.2969 15.0365 33.2865 14.6771 33.2656 14.2812C33.2552 13.8854 33.2344 13.625 33.2031 13.5C33.1094 13.3229 32.8385 13.1406 32.3906 12.9531C31.9531 12.7656 31.2344 12.6719 30.2344 12.6719C29.6198 12.6719 28.9844 12.75 28.3281 12.9062C27.6823 13.0521 26.9635 13.25 26.1719 13.5C25.7448 12.7917 25.401 12.1198 25.1406 11.4844C24.8906 10.8385 24.7656 10.1927 24.7656 9.54688C24.7656 9.34896 24.7812 9.15104 24.8125 8.95312C26.5 7.64062 28.6823 6.98438 31.3594 6.98438C32.8385 6.98438 34.151 7.15104 35.2969 7.48438C36.4427 7.81771 37.3854 8.46354 38.125 9.42188C38.8646 10.3802 39.2344 11.7396 39.2344 13.5C39.2344 15.2188 39.0312 16.8854 38.625 18.5C38.2292 20.1042 38.026 20.9219 38.0156 20.9531L40.2812 19.9844C40.5833 20.3073 40.849 20.7031 41.0781 21.1719C41.3177 21.6302 41.4688 22.1615 41.5312 22.7656C41.3854 23.0781 41.0677 23.4792 40.5781 23.9688C40.0885 24.4479 39.4896 24.875 38.7812 25.25C38.0729 25.625 37.3333 25.8125 36.5625 25.8125C35.6979 25.8125 35.0417 25.5573 34.5938 25.0469C34.1562 24.5365 33.9375 23.875 33.9375 23.0625C33.9375 22.6042 34.0052 22.1406 34.1406 21.6719L33.6719 21.5312C33.3802 23.1771 32.7604 24.3021 31.8125 24.9062C30.8646 25.5104 29.8177 25.8125 28.6719 25.8125C27.9219 25.8125 27.1979 25.6042 26.5 25.1875C25.8021 24.7604 25.2344 24.1458 24.7969 23.3438C24.3594 22.5312 24.1406 21.5833 24.1406 20.5C24.1406 18.7708 24.5729 17.4583 25.4375 16.5625C26.3021 15.6562 27.5573 15.2031 29.2031 15.2031ZM30.9844 21.1562C31.2448 21.1042 31.5521 20.9583 31.9062 20.7188C32.2708 20.4792 32.5938 20.1927 32.875 19.8594C33.1562 19.526 33.3229 19.2083 33.375 18.9062L33.2812 18.5312C32.7292 18.4583 32.1406 18.4219 31.5156 18.4219C30.9844 18.4219 30.6198 18.4635 30.4219 18.5469C30.0885 18.9219 29.9219 19.3385 29.9219 19.7969C29.9219 20.1302 30.0052 20.4323 30.1719 20.7031C30.349 20.974 30.6198 21.125 30.9844 21.1562ZM42.2969 16.4219C42.2969 14.6198 42.599 13.0104 43.2031 11.5938C43.8073 10.1771 44.7396 9.05729 46 8.23438C47.2708 7.40104 48.8542 6.98438 50.75 6.98438C51.7396 6.98438 52.7292 7.10417 53.7188 7.34375C54.7083 7.57292 55.5469 7.95833 56.2344 8.5C56.8698 9.01042 57.3281 9.6875 57.6094 10.5312C57.901 11.3646 58.0469 12.2917 58.0469 13.3125C58.0469 13.9896 57.9896 14.6823 57.875 15.3906C57.75 15.599 57.5052 15.875 57.1406 16.2188C56.776 16.5521 56.349 16.8802 55.8594 17.2031C55.3698 17.526 54.8958 17.776 54.4375 17.9531C54 17.9844 53.5469 18 53.0781 18C52.2552 18 51.4219 17.9635 50.5781 17.8906C49.7344 17.8177 48.9948 17.7344 48.3594 17.6406C48.4427 18.526 48.7135 19.2969 49.1719 19.9531C49.6302 20.6094 50.3594 20.9375 51.3594 20.9375C51.4531 20.9375 51.6042 20.9271 51.8125 20.9062C52.4479 20.8438 53.1875 20.6771 54.0312 20.4062C54.8854 20.125 55.7344 19.8021 56.5781 19.4375C56.974 19.8333 57.2656 20.2292 57.4531 20.625C57.6406 21.0208 57.7708 21.5885 57.8438 22.3281C57.5208 22.7031 56.9948 23.1615 56.2656 23.7031C55.5469 24.2448 54.6667 24.7344 53.625 25.1719C52.5833 25.599 51.4948 25.8125 50.3594 25.8125C48.651 25.8125 47.1875 25.401 45.9688 24.5781C44.7604 23.7448 43.8438 22.6198 43.2188 21.2031C42.6042 19.776 42.2969 18.1823 42.2969 16.4219ZM52.3594 12.8281C52.2135 12.6719 51.9688 12.5521 51.625 12.4688C51.2812 12.375 50.9219 12.3281 50.5469 12.3281C50.2448 12.3281 49.9375 12.3542 49.625 12.4062C49.3229 12.4583 49.1406 12.5156 49.0781 12.5781C48.724 13.276 48.5 14.0677 48.4062 14.9531L52.5781 14.5469L52.3594 12.8281ZM60.1875 16.4844C60.1875 14.901 60.4062 13.3854 60.8438 11.9375C61.2917 10.4896 61.9896 9.30208 62.9375 8.375C63.8958 7.44792 65.099 6.98438 66.5469 6.98438C68.1719 6.98438 69.724 7.5 71.2031 8.53125L71.4531 8.375C71.4219 7.15625 71.2708 6.05208 71 5.0625L67.8281 4.85938C67.6823 4.67188 67.5677 4.39583 67.4844 4.03125C67.401 3.65625 67.3594 3.27083 67.3594 2.875C67.3594 2.34375 67.4219 1.88542 67.5469 1.5C68.1719 1.05208 68.974 0.713542 69.9531 0.484375C70.9323 0.255208 71.9115 0.140625 72.8906 0.140625C73.974 0.140625 74.7917 0.369792 75.3438 0.828125C75.8958 1.27604 76.2656 1.95833 76.4531 2.875C76.651 3.78125 76.75 5.04167 76.75 6.65625C76.75 8.78125 76.6615 11.1927 76.4844 13.8906C76.3073 16.5885 76.0781 18.7917 75.7969 20.5L75.7344 20.7656L77.5469 19.9844C77.849 20.3073 78.1146 20.7031 78.3438 21.1719C78.5833 21.6302 78.7344 22.1615 78.7969 22.7656C78.651 23.0781 78.3333 23.4792 77.8438 23.9688C77.3542 24.4479 76.7552 24.875 76.0469 25.25C75.3385 25.625 74.599 25.8125 73.8281 25.8125C72.9635 25.8125 72.2969 25.5573 71.8281 25.0469C71.3698 24.526 71.1406 23.8646 71.1406 23.0625C71.1406 22.8542 71.1927 22.4271 71.2969 21.7812C71.4115 21.1354 71.5052 20.6875 71.5781 20.4375L71.1094 20.2969C70.5781 22.1615 69.875 23.5469 69 24.4531C68.125 25.3594 67.0417 25.8125 65.75 25.8125C64.3646 25.8125 63.2552 25.3542 62.4219 24.4375C61.599 23.5104 61.0208 22.349 60.6875 20.9531C60.3542 19.5573 60.1875 18.0677 60.1875 16.4844ZM70.9062 16.2031C70.9688 15.8281 71 15.3906 71 14.8906C71 14.5677 70.9844 14.2604 70.9531 13.9688C70.9323 13.6771 70.9062 13.4688 70.875 13.3438C70.4583 13.0417 69.9844 12.8281 69.4531 12.7031C68.9323 12.5781 68.4531 12.5156 68.0156 12.5156C67.7448 12.5156 67.4531 12.5417 67.1406 12.5938C66.9323 12.8021 66.7656 13.2552 66.6406 13.9531C66.5156 14.6406 66.4531 15.4167 66.4531 16.2812C66.4531 17.2083 66.5156 18.1094 66.6406 18.9844C66.776 19.849 66.9635 20.526 67.2031 21.0156C67.3698 21.0156 67.6927 20.7604 68.1719 20.25C68.6615 19.7292 69.1667 19.0938 69.6875 18.3438C70.2083 17.5833 70.6146 16.8698 70.9062 16.2031ZM84.8906 15.2031C85.5052 15.2031 86.1823 15.2656 86.9219 15.3906C87.6719 15.5156 88.3594 15.6667 88.9844 15.8438V15.3594C88.9844 15.0365 88.974 14.6771 88.9531 14.2812C88.9427 13.8854 88.9219 13.625 88.8906 13.5C88.7969 13.3229 88.526 13.1406 88.0781 12.9531C87.6406 12.7656 86.9219 12.6719 85.9219 12.6719C85.3073 12.6719 84.6719 12.75 84.0156 12.9062C83.3698 13.0521 82.651 13.25 81.8594 13.5C81.4323 12.7917 81.0885 12.1198 80.8281 11.4844C80.5781 10.8385 80.4531 10.1927 80.4531 9.54688C80.4531 9.34896 80.4688 9.15104 80.5 8.95312C82.1875 7.64062 84.3698 6.98438 87.0469 6.98438C88.526 6.98438 89.8385 7.15104 90.9844 7.48438C92.1302 7.81771 93.0729 8.46354 93.8125 9.42188C94.5521 10.3802 94.9219 11.7396 94.9219 13.5C94.9219 15.2188 94.7188 16.8854 94.3125 18.5C93.9167 20.1042 93.7135 20.9219 93.7031 20.9531L95.9688 19.9844C96.2708 20.3073 96.5365 20.7031 96.7656 21.1719C97.0052 21.6302 97.1562 22.1615 97.2188 22.7656C97.0729 23.0781 96.7552 23.4792 96.2656 23.9688C95.776 24.4479 95.1771 24.875 94.4688 25.25C93.7604 25.625 93.0208 25.8125 92.25 25.8125C91.3854 25.8125 90.7292 25.5573 90.2812 25.0469C89.8438 24.5365 89.625 23.875 89.625 23.0625C89.625 22.6042 89.6927 22.1406 89.8281 21.6719L89.3594 21.5312C89.0677 23.1771 88.4479 24.3021 87.5 24.9062C86.5521 25.5104 85.5052 25.8125 84.3594 25.8125C83.6094 25.8125 82.8854 25.6042 82.1875 25.1875C81.4896 24.7604 80.9219 24.1458 80.4844 23.3438C80.0469 22.5312 79.8281 21.5833 79.8281 20.5C79.8281 18.7708 80.2604 17.4583 81.125 16.5625C81.9896 15.6562 83.2448 15.2031 84.8906 15.2031ZM86.6719 21.1562C86.9323 21.1042 87.2396 20.9583 87.5938 20.7188C87.9583 20.4792 88.2812 20.1927 88.5625 19.8594C88.8438 19.526 89.0104 19.2083 89.0625 18.9062L88.9688 18.5312C88.4167 18.4583 87.8281 18.4219 87.2031 18.4219C86.6719 18.4219 86.3073 18.4635 86.1094 18.5469C85.776 18.9219 85.6094 19.3385 85.6094 19.7969C85.6094 20.1302 85.6927 20.4323 85.8594 20.7031C86.0365 20.974 86.3073 21.125 86.6719 21.1562ZM97.5781 5.0625C97.4219 4.42708 97.3177 3.90104 97.2656 3.48438C97.2135 3.05729 97.1927 2.56771 97.2031 2.01562C97.4219 1.73438 97.7604 1.45312 98.2188 1.17188C98.6875 0.880208 99.2292 0.635417 99.8438 0.4375C100.469 0.239583 101.115 0.140625 101.781 0.140625C103.083 0.140625 104.083 0.46875 104.781 1.125C105.479 1.78125 105.828 2.75 105.828 4.03125C105.828 4.94792 105.75 6.42188 105.594 8.45312C105.438 10.4844 105.214 12.6458 104.922 14.9375C104.63 17.2188 104.297 19.2135 103.922 20.9219L103.953 20.9531L106.266 19.9844C107.078 20.6823 107.552 21.6094 107.688 22.7656C107.688 22.8385 107.453 23.1406 106.984 23.6719C106.516 24.1927 105.896 24.6823 105.125 25.1406C104.365 25.5885 103.49 25.8125 102.5 25.8125C101.469 25.8125 100.63 25.526 99.9844 24.9531C99.349 24.3802 99.0469 23.401 99.0781 22.0156L99.1094 19.2031C99.1198 16.5365 99.1458 14.1354 99.1875 12C99.2396 9.86458 99.3438 7.66146 99.5 5.39062L97.5781 5.0625ZM117.453 13.9375C117.453 10.7812 117.5 8.35938 117.594 6.67188H117.578L115.188 6.34375C115.052 5.95833 114.948 5.53646 114.875 5.07812C114.802 4.60938 114.766 4.15625 114.766 3.71875C114.766 3.38542 114.792 3.02083 114.844 2.625C116.115 2.19792 117.776 1.86979 119.828 1.64062C121.88 1.40104 123.839 1.28125 125.703 1.28125C127.297 1.28125 128.667 1.40625 129.812 1.65625C130.958 1.89583 131.917 2.44792 132.688 3.3125C133.469 4.16667 133.859 5.44271 133.859 7.14062C133.859 7.80729 133.677 8.5625 133.312 9.40625C132.948 10.2396 132.469 11.026 131.875 11.7656C131.292 12.4948 130.682 13.0573 130.047 13.4531C130.839 13.5885 131.573 13.8646 132.25 14.2812C132.938 14.6875 133.495 15.2448 133.922 15.9531C134.349 16.651 134.562 17.4792 134.562 18.4375C134.562 19.7188 134.318 20.8229 133.828 21.75C133.339 22.6771 132.641 23.4427 131.734 24.0469C129.964 25.224 127.464 25.8125 124.234 25.8125C122.964 25.8125 121.833 25.7865 120.844 25.7344C119.865 25.6927 118.958 25.6094 118.125 25.4844C117.677 23.0677 117.453 19.2188 117.453 13.9375ZM126.344 12.9531C126.615 12.1927 126.844 11.2292 127.031 10.0625C127.229 8.88542 127.349 7.92708 127.391 7.1875C127.339 7.09375 127.073 7.01562 126.594 6.95312C126.115 6.88021 125.495 6.84375 124.734 6.84375C124.495 6.84375 124.094 6.85938 123.531 6.89062C123.448 9.23438 123.323 11.3385 123.156 13.2031L124.734 13.0781L126.344 12.9531ZM125.562 21.7188C126.438 21.7188 127.062 21.6823 127.438 21.6094C127.698 21.4531 127.927 21.1719 128.125 20.7656C128.333 20.3594 128.49 19.9167 128.594 19.4375C128.698 18.9479 128.75 18.5104 128.75 18.125C128.562 17.5833 127.63 17.3125 125.953 17.3125C125.245 17.3125 124.432 17.3594 123.516 17.4531C123.266 17.4844 123.078 17.5 122.953 17.5L122.906 19.7812C122.896 20.0104 122.885 20.276 122.875 20.5781C122.865 20.8802 122.859 21.2188 122.859 21.5938C123.547 21.6771 124.297 21.7188 125.109 21.7188H125.562ZM136.484 16.2656C136.484 14.3802 136.786 12.7448 137.391 11.3594C137.995 9.97396 138.922 8.90104 140.172 8.14062C141.422 7.36979 142.99 6.98438 144.875 6.98438C146.958 6.98438 148.594 7.375 149.781 8.15625C150.969 8.92708 151.797 10 152.266 11.375C152.745 12.75 152.984 14.4323 152.984 16.4219C152.984 18.224 152.667 19.8333 152.031 21.25C151.406 22.6562 150.458 23.7708 149.188 24.5938C147.927 25.4062 146.38 25.8125 144.547 25.8125C141.714 25.8125 139.661 24.9427 138.391 23.2031C137.12 21.4531 136.484 19.1406 136.484 16.2656ZM145.188 21.2344C145.719 21.2344 146.042 21.1927 146.156 21.1094C146.396 20.6927 146.578 20.1042 146.703 19.3438C146.828 18.5833 146.891 17.7604 146.891 16.875C146.891 16.0625 146.839 15.3021 146.734 14.5938C146.63 13.875 146.484 13.3125 146.297 12.9062C146.182 12.7708 145.953 12.6719 145.609 12.6094C145.266 12.5365 144.891 12.5 144.484 12.5C143.953 12.5 143.589 12.5573 143.391 12.6719C142.87 13.5677 142.609 14.8125 142.609 16.4062C142.609 17.1562 142.667 17.9219 142.781 18.7031C142.896 19.4844 143.042 20.1927 143.219 20.8281C143.344 20.9635 143.599 21.0677 143.984 21.1406C144.37 21.2031 144.771 21.2344 145.188 21.2344ZM155.078 16.2656C155.078 14.3802 155.38 12.7448 155.984 11.3594C156.589 9.97396 157.516 8.90104 158.766 8.14062C160.016 7.36979 161.583 6.98438 163.469 6.98438C165.552 6.98438 167.188 7.375 168.375 8.15625C169.562 8.92708 170.391 10 170.859 11.375C171.339 12.75 171.578 14.4323 171.578 16.4219C171.578 18.224 171.26 19.8333 170.625 21.25C170 22.6562 169.052 23.7708 167.781 24.5938C166.521 25.4062 164.974 25.8125 163.141 25.8125C160.307 25.8125 158.255 24.9427 156.984 23.2031C155.714 21.4531 155.078 19.1406 155.078 16.2656ZM163.781 21.2344C164.312 21.2344 164.635 21.1927 164.75 21.1094C164.99 20.6927 165.172 20.1042 165.297 19.3438C165.422 18.5833 165.484 17.7604 165.484 16.875C165.484 16.0625 165.432 15.3021 165.328 14.5938C165.224 13.875 165.078 13.3125 164.891 12.9062C164.776 12.7708 164.547 12.6719 164.203 12.6094C163.859 12.5365 163.484 12.5 163.078 12.5C162.547 12.5 162.182 12.5573 161.984 12.6719C161.464 13.5677 161.203 14.8125 161.203 16.4062C161.203 17.1562 161.26 17.9219 161.375 18.7031C161.49 19.4844 161.635 20.1927 161.812 20.8281C161.938 20.9635 162.193 21.0677 162.578 21.1406C162.964 21.2031 163.365 21.2344 163.781 21.2344ZM174.578 15.4062C174.578 10.5312 174.672 7.1875 174.859 5.375L173.094 5.0625C172.844 4.10417 172.719 3.07292 172.719 1.96875C172.875 1.77083 173.167 1.52604 173.594 1.23438C174.021 0.942708 174.516 0.6875 175.078 0.46875C175.651 0.25 176.219 0.140625 176.781 0.140625C178.177 0.140625 179.26 0.442708 180.031 1.04688C180.812 1.65104 181.203 2.68229 181.203 4.14062C181.203 4.86979 181.151 5.98958 181.047 7.5C180.943 9 180.75 10.8229 180.469 12.9688C180.188 15.1146 179.812 17.3542 179.344 19.6875L179.609 19.8438C180.432 18.7083 181.224 17.4583 181.984 16.0938C182.745 14.7188 183.349 13.4427 183.797 12.2656L182.453 11.9375C182.328 11.2292 182.266 10.3906 182.266 9.42188V8.85938C182.661 8.35938 183.203 7.92188 183.891 7.54688C184.589 7.17188 185.453 6.98438 186.484 6.98438C187.224 6.98438 187.865 7.125 188.406 7.40625C188.948 7.67708 189.365 8.05729 189.656 8.54688C189.948 9.03646 190.094 9.59896 190.094 10.2344C190.094 10.7135 190.021 11.1667 189.875 11.5938C189.729 12.0104 189.51 12.4531 189.219 12.9219C188.469 14.1094 187.161 15.7969 185.297 17.9844C185.922 18.8594 186.531 19.6198 187.125 20.2656C187.354 20.151 187.568 20 187.766 19.8125C187.974 19.625 188.24 19.3542 188.562 19L188.906 18.6406L190.828 20.0938C190.755 21.9479 190.354 23.3646 189.625 24.3438C188.906 25.3125 187.953 25.7969 186.766 25.7969C185.464 25.7969 184.484 25.401 183.828 24.6094C183.172 23.8177 182.693 22.6979 182.391 21.25C181.245 22.4896 180.234 23.5312 179.359 24.375C178.495 25.2083 177.927 25.6875 177.656 25.8125C177.083 25.8125 176.536 25.7448 176.016 25.6094C175.495 25.474 175.109 25.2604 174.859 24.9688C174.745 23.4896 174.667 22.026 174.625 20.5781C174.594 19.1198 174.578 17.3958 174.578 15.4062ZM193.953 19.9844C194.87 20.349 195.604 20.6302 196.156 20.8281C196.708 21.026 197.312 21.1979 197.969 21.3438C198.635 21.4896 199.297 21.5625 199.953 21.5625C200.245 21.5625 200.453 21.5365 200.578 21.4844C200.609 21.4427 200.635 21.3802 200.656 21.2969C200.688 21.2031 200.703 21.1094 200.703 21.0156C200.703 20.8073 200.583 20.6354 200.344 20.5C199.969 20.2917 199.302 19.9635 198.344 19.5156C197.031 18.8906 195.99 18.3333 195.219 17.8438C194.458 17.3542 193.812 16.7031 193.281 15.8906C192.76 15.0781 192.5 14.0573 192.5 12.8281C192.5 11.0677 193.026 9.65625 194.078 8.59375C195.13 7.52083 196.797 6.98438 199.078 6.98438C201.797 6.98438 203.911 7.33854 205.422 8.04688C205.495 8.34896 205.531 8.72917 205.531 9.1875C205.531 10.0625 205.396 10.9583 205.125 11.875C204.854 12.7812 204.5 13.4531 204.062 13.8906C203.469 13.6927 202.63 13.375 201.547 12.9375C200.755 12.625 200.125 12.3854 199.656 12.2188C199.198 12.0417 198.776 11.9167 198.391 11.8438C198.182 11.8958 198.016 12.0208 197.891 12.2188C197.766 12.4062 197.703 12.6302 197.703 12.8906C197.703 13.1198 197.771 13.3125 197.906 13.4688C198.042 13.625 198.193 13.75 198.359 13.8438C198.536 13.9271 198.786 14.0417 199.109 14.1875C199.276 14.2604 199.432 14.3281 199.578 14.3906C199.724 14.4427 199.859 14.4948 199.984 14.5469C200.797 14.8906 201.438 15.1719 201.906 15.3906C202.375 15.6094 202.828 15.8698 203.266 16.1719C204.068 16.724 204.698 17.3542 205.156 18.0625C205.615 18.7708 205.844 19.5469 205.844 20.3906C205.844 21.5573 205.51 22.5677 204.844 23.4219C204.188 24.2656 203.344 24.8802 202.312 25.2656C201.771 25.4635 201.177 25.6042 200.531 25.6875C199.896 25.7812 199.151 25.8281 198.297 25.8281C197.286 25.8281 196.245 25.6354 195.172 25.25C194.109 24.8542 193.297 24.1979 192.734 23.2812C192.745 22.6458 192.828 22.0938 192.984 21.625C193.151 21.1458 193.474 20.599 193.953 19.9844Z" fill="black"/>
</svg>
